<?xml version="1.0" encoding="UTF-8" standalone="no"?>
<!-- Created with Inkscape (http://www.inkscape.org/) -->

<svg
   xmlns:dc="http://purl.org/dc/elements/1.1/"
   xmlns:cc="http://creativecommons.org/ns#"
   xmlns:rdf="http://www.w3.org/1999/02/22-rdf-syntax-ns#"
   xmlns:svg="http://www.w3.org/2000/svg"
   xmlns="http://www.w3.org/2000/svg"
   xmlns:sodipodi="http://sodipodi.sourceforge.net/DTD/sodipodi-0.dtd"
   xmlns:inkscape="http://www.inkscape.org/namespaces/inkscape"
   width="624"
   height="624"
   id="svg2"
   inkscape:label="Pozadí"
   version="1.1"
   inkscape:version="0.48.2 r9819"
   enable-background="new"
   sodipodi:docname="center.svg">
  <defs
     id="defs3">
    <filter
       inkscape:collect="always"
       id="filter3924">
      <feBlend
         inkscape:collect="always"
         mode="multiply"
         in2="BackgroundImage"
         id="feBlend3926" />
    </filter>
  </defs>
  <sodipodi:namedview
     id="base"
     pagecolor="#ffffff"
     bordercolor="#666666"
     borderopacity="1.0"
     inkscape:pageopacity="0.0"
     inkscape:pageshadow="2"
     inkscape:zoom="0.5"
     inkscape:cx="327.17658"
     inkscape:cy="198.41611"
     inkscape:document-units="px"
     inkscape:current-layer="layer1"
     showgrid="false"
     inkscape:window-width="1920"
     inkscape:window-height="1018"
     inkscape:window-x="-8"
     inkscape:window-y="-8"
     inkscape:window-maximized="1" />
  <metadata
     id="metadata6">
    <rdf:RDF>
      <cc:Work
         rdf:about="">
        <dc:format>image/svg+xml</dc:format>
        <dc:type
           rdf:resource="http://purl.org/dc/dcmitype/StillImage" />
      </cc:Work>
    </rdf:RDF>
  </metadata>
  <g
     inkscape:groupmode="layer"
     id="layer3"
     inkscape:label="Layer#1"
     style="filter:url(#filter3924)">
    <path
       sodipodi:type="arc"
       style="fill:none;stroke:#ff0000;stroke-width:33.98670958999999700;stroke-miterlimit:4;stroke-opacity:1;stroke-dasharray:none;stroke-dashoffset:0;opacity:0.6"
       id="path3829"
       sodipodi:cx="250.71428"
       sodipodi:cy="264.14285"
       sodipodi:rx="223.57143"
       sodipodi:ry="223.57143"
       d="m 474.28571,264.14285 a 223.57143,223.57143 0 1 1 -447.142857,0 223.57143,223.57143 0 1 1 447.142857,0 z"
       transform="matrix(0.88269795,0,0,0.88269795,91.552167,73.41307)"
       inkscape:export-filename="C:\Users\Scotty\center_mark.PNG"
       inkscape:export-xdpi="90"
       inkscape:export-ydpi="90" />
    <path
       sodipodi:type="arc"
       style="fill:none;stroke:#ff0000;stroke-width:36.08211898999999800;stroke-miterlimit:4;stroke-opacity:1;stroke-dasharray:none;stroke-dashoffset:0;opacity:0.6"
       id="path3829-0"
       sodipodi:cx="250.71428"
       sodipodi:cy="264.14285"
       sodipodi:rx="223.57143"
       sodipodi:ry="223.57143"
       d="m 474.28571,264.14285 a 223.57143,223.57143 0 1 1 -447.142857,0 223.57143,223.57143 0 1 1 447.142857,0 z"
       transform="matrix(0.55429118,0,0,0.55429118,178.0313,160.58795)"
       inkscape:export-filename="C:\Users\Scotty\center_mark.PNG"
       inkscape:export-xdpi="90"
       inkscape:export-ydpi="90" />
  </g>
  <g
     inkscape:label="Vrstva 1"
     inkscape:groupmode="layer"
     id="layer1"
     transform="translate(0,-428.36218)">
    <path
       style="opacity:0.6;fill:#000000;fill-opacity:1;fill-rule:nonzero;stroke:#ff0000;stroke-width:0;stroke-miterlimit:4;stroke-opacity:1;stroke-dasharray:none;stroke-dashoffset:0"
       d="M 30.6875 300.75 L 30.6875 315.875 L 283.53125 315.875 C 282.96361 313.3735 282.65625 310.76702 282.65625 308.09375 C 282.65625 305.57683 282.93267 303.11631 283.4375 300.75 L 30.6875 300.75 z M 351.875 300.75 C 352.37983 303.11631 352.65625 305.57683 352.65625 308.09375 C 352.65625 310.76702 352.34889 313.3735 351.78125 315.875 L 597.78125 315.875 L 597.78125 300.75 L 351.875 300.75 z "
       id="rect3974"
       inkscape:export-filename="C:\Users\Scotty\center_mark.PNG"
       inkscape:export-xdpi="90"
       inkscape:export-ydpi="90"
       transform="translate(0,428.36218)" />
    <path
       style="opacity:0.6;fill:#000000;fill-opacity:1;fill-rule:nonzero;stroke:#ff0000;stroke-width:0;stroke-miterlimit:4;stroke-opacity:1;stroke-dasharray:none;stroke-dashoffset:0"
       d="M 309.4375 22.46875 L 309.4375 274.0625 C 312.07259 273.4286 314.82664 273.09375 317.65625 273.09375 C 320.01741 273.09375 322.33245 273.33553 324.5625 273.78125 L 324.5625 22.46875 L 309.4375 22.46875 z M 309.4375 342.125 L 309.4375 589.53125 L 324.5625 589.53125 L 324.5625 342.40625 C 322.33245 342.85197 320.01741 343.09375 317.65625 343.09375 C 314.82664 343.09375 312.07259 342.7589 309.4375 342.125 z "
       id="rect3974-4"
       inkscape:export-filename="C:\Users\Scotty\center_mark.PNG"
       inkscape:export-xdpi="90"
       inkscape:export-ydpi="90"
       transform="translate(0,428.36218)" />
    <path
       transform="matrix(1.1395349,0,0,1.1395349,-42.926386,385.97379)"
       sodipodi:type="arc"
       style="opacity:0.6;fill:#ff0000;fill-opacity:1;stroke:#ff0000;stroke-width:0;stroke-miterlimit:4;stroke-opacity:1;stroke-dasharray:none;stroke-dashoffset:0"
       id="path3869"
       sodipodi:cx="316.42856"
       sodipodi:cy="307.57144"
       sodipodi:rx="30.714285"
       sodipodi:ry="30.714285"
       d="m 347.14284,307.57144 a 30.714285,30.714285 0 1 1 -61.42857,0 30.714285,30.714285 0 1 1 61.42857,0 z"
       inkscape:export-filename="C:\Users\Scotty\center_mark.PNG"
       inkscape:export-xdpi="90"
       inkscape:export-ydpi="90" />
  </g>
  <g
     inkscape:groupmode="layer"
     id="layer2"
     inkscape:label="Layer" />
</svg>
