<?xml version="1.0" encoding="UTF-8" standalone="no"?>
<!-- Created with Inkscape (http://www.inkscape.org/) -->

<svg
   xmlns:osb="http://www.openswatchbook.org/uri/2009/osb"
   xmlns:dc="http://purl.org/dc/elements/1.1/"
   xmlns:cc="http://creativecommons.org/ns#"
   xmlns:rdf="http://www.w3.org/1999/02/22-rdf-syntax-ns#"
   xmlns:svg="http://www.w3.org/2000/svg"
   xmlns="http://www.w3.org/2000/svg"
   xmlns:xlink="http://www.w3.org/1999/xlink"
   xmlns:sodipodi="http://sodipodi.sourceforge.net/DTD/sodipodi-0.dtd"
   xmlns:inkscape="http://www.inkscape.org/namespaces/inkscape"
   width="125"
   height="600"
   id="svg2"
   inkscape:label="Pozadí"
   version="1.1"
   inkscape:version="0.48.2 r9819"
   sodipodi:docname="read_btn_up.svg"
   enable-background="new"
   inkscape:export-filename="C:\Users\Scotty\read_btn_up.png"
   inkscape:export-xdpi="90"
   inkscape:export-ydpi="90">
  <defs
     id="defs3">
    <linearGradient
       id="linearGradient5774">
      <stop
         style="stop-color:#4646e8;stop-opacity:1;"
         offset="0"
         id="stop5776" />
      <stop
         style="stop-color:#c8c8c8;stop-opacity:1;"
         offset="1"
         id="stop5778" />
    </linearGradient>
    <linearGradient
       id="linearGradient5766">
      <stop
         id="stop5768"
         offset="0"
         style="stop-color:#464646;stop-opacity:1;" />
      <stop
         id="stop5770"
         offset="1"
         style="stop-color:#c8c8c8;stop-opacity:1;" />
    </linearGradient>
    <linearGradient
       id="linearGradient5507">
      <stop
         style="stop-color:#ffffff;stop-opacity:1;"
         offset="0"
         id="stop5509" />
      <stop
         style="stop-color:#c8c8c8;stop-opacity:1;"
         offset="1"
         id="stop5511" />
    </linearGradient>
    <linearGradient
       id="linearGradient5501">
      <stop
         id="stop5503"
         offset="0"
         style="stop-color:#464646;stop-opacity:0.34090909;" />
      <stop
         id="stop5505"
         offset="1"
         style="stop-color:#464646;stop-opacity:0;" />
    </linearGradient>
    <linearGradient
       osb:paint="gradient"
       id="linearGradient5382">
      <stop
         id="stop5384"
         offset="0"
         style="stop-color:#4069ed;stop-opacity:1;" />
      <stop
         style="stop-color:#cde3fc;stop-opacity:1;"
         offset="0.17"
         id="stop5780" />
      <stop
         id="stop5388"
         offset="1"
         style="stop-color:#0345ff;stop-opacity:1;" />
    </linearGradient>
    <linearGradient
       id="linearGradient5368">
      <stop
         style="stop-color:#464646;stop-opacity:1;"
         offset="0"
         id="stop5370" />
      <stop
         style="stop-color:#c8c8c8;stop-opacity:1;"
         offset="1"
         id="stop5372" />
    </linearGradient>
    <linearGradient
       inkscape:collect="always"
       id="linearGradient5252"
       osb:paint="gradient">
      <stop
         style="stop-color:#8d0000;stop-opacity:1;"
         offset="0"
         id="stop5254" />
      <stop
         style="stop-color:#8d0000;stop-opacity:0;"
         offset="1"
         id="stop5256" />
    </linearGradient>
    <linearGradient
       id="linearGradient5216"
       osb:paint="gradient">
      <stop
         style="stop-color:#ffffff;stop-opacity:0.65151513;"
         offset="0"
         id="stop5218" />
      <stop
         style="stop-color:#000000;stop-opacity:0;"
         offset="1"
         id="stop5220" />
    </linearGradient>
    <inkscape:perspective
       sodipodi:type="inkscape:persp3d"
       inkscape:vp_x="-562.85714 : 666.18109 : 1"
       inkscape:vp_y="0 : 1000 : 0"
       inkscape:vp_z="1138.3802 : 1169.0382 : 1"
       inkscape:persp3d-origin="372.04724 : 350.78739 : 1"
       id="perspective2984" />
    <linearGradient
       inkscape:collect="always"
       xlink:href="#linearGradient5216-2"
       id="linearGradient5260-5"
       x1="330.92859"
       y1="363.70355"
       x2="334.78571"
       y2="548.07648"
       gradientUnits="userSpaceOnUse"
       gradientTransform="translate(185.14924,-995.4432)" />
    <linearGradient
       id="linearGradient5216-2"
       osb:paint="gradient">
      <stop
         style="stop-color:#ffffff;stop-opacity:0.9848485;"
         offset="0"
         id="stop5218-3" />
      <stop
         id="stop5380"
         offset="0.5"
         style="stop-color:#7f7f7f;stop-opacity:1;" />
      <stop
         style="stop-color:#000000;stop-opacity:1;"
         offset="1"
         id="stop5220-1" />
    </linearGradient>
    <linearGradient
       inkscape:collect="always"
       xlink:href="#linearGradient5507"
       id="linearGradient5499"
       x1="31.612377"
       y1="748.56689"
       x2="98.19622"
       y2="748.56689"
       gradientUnits="userSpaceOnUse"
       gradientTransform="translate(-4.0172024,-3.9828712)" />
    <linearGradient
       inkscape:collect="always"
       xlink:href="#linearGradient5382"
       id="linearGradient5710"
       gradientUnits="userSpaceOnUse"
       gradientTransform="matrix(0,1.0063391,-0.9782294,0,478.46209,-75.22067)"
       x1="315.49072"
       y1="329.0199"
       x2="314.91171"
       y2="626.38849" />
    <linearGradient
       inkscape:collect="always"
       xlink:href="#linearGradient5382-4"
       id="linearGradient5710-2"
       gradientUnits="userSpaceOnUse"
       gradientTransform="matrix(0,1.0063391,-0.9782294,0,478.46209,-75.22067)"
       x1="315.49072"
       y1="329.0199"
       x2="314.91171"
       y2="626.38849" />
    <linearGradient
       osb:paint="gradient"
       id="linearGradient5382-4">
      <stop
         id="stop5384-5"
         offset="0"
         style="stop-color:#ffffff;stop-opacity:1;" />
      <stop
         id="stop5388-8"
         offset="1"
         style="stop-color:#000000;stop-opacity:1;" />
    </linearGradient>
    <linearGradient
       inkscape:collect="always"
       xlink:href="#linearGradient5368-1"
       id="linearGradient5374-8"
       x1="450.41202"
       y1="-62.500027"
       x2="1054.3124"
       y2="-62.500027"
       gradientUnits="userSpaceOnUse"
       gradientTransform="matrix(0,0.99363749,-0.96929704,0,1.9189133,-447.57523)" />
    <linearGradient
       id="linearGradient5368-1">
      <stop
         style="stop-color:#464646;stop-opacity:1;"
         offset="0"
         id="stop5370-2" />
      <stop
         style="stop-color:#c8c8c8;stop-opacity:1;"
         offset="1"
         id="stop5372-1" />
    </linearGradient>
    <linearGradient
       inkscape:collect="always"
       xlink:href="#linearGradient5774"
       id="linearGradient5772"
       gradientUnits="userSpaceOnUse"
       gradientTransform="matrix(0,0.99363749,-0.96929704,0,1.9189133,-447.57523)"
       x1="450.41202"
       y1="-62.500027"
       x2="1054.3124"
       y2="-62.500027" />
    <linearGradient
       inkscape:collect="always"
       xlink:href="#linearGradient5382"
       id="linearGradient5798"
       gradientUnits="userSpaceOnUse"
       gradientTransform="matrix(0,0.33542368,-0.32867637,0,160.74862,827.30805)"
       x1="315.49072"
       y1="329.0199"
       x2="314.91171"
       y2="584.90417" />
    <linearGradient
       inkscape:collect="always"
       xlink:href="#linearGradient5774"
       id="linearGradient5816"
       gradientUnits="userSpaceOnUse"
       gradientTransform="matrix(0,0.33119012,-0.32567517,0,0.63435,703.19825)"
       x1="450.41202"
       y1="-62.500027"
       x2="1054.3124"
       y2="-62.500027" />
  </defs>
  <sodipodi:namedview
     id="base"
     pagecolor="#ffffff"
     bordercolor="#666666"
     borderopacity="1.0"
     inkscape:pageopacity="0"
     inkscape:pageshadow="2"
     inkscape:zoom="0.68997479"
     inkscape:cx="183.6358"
     inkscape:cy="113.3014"
     inkscape:document-units="px"
     inkscape:current-layer="layer1"
     showgrid="false"
     inkscape:snap-bbox="true"
     inkscape:snap-bbox-midpoints="false"
     inkscape:snap-bbox-edge-midpoints="true"
     inkscape:snap-center="true"
     inkscape:snap-smooth-nodes="false"
     inkscape:object-paths="true"
     inkscape:window-width="1920"
     inkscape:window-height="1018"
     inkscape:window-x="-8"
     inkscape:window-y="-8"
     inkscape:window-maximized="1"
     showguides="true"
     inkscape:guide-bbox="true"
     inkscape:showpageshadow="true"
     showborder="true" />
  <metadata
     id="metadata6">
    <rdf:RDF>
      <cc:Work
         rdf:about="">
        <dc:format>image/svg+xml</dc:format>
        <dc:type
           rdf:resource="http://purl.org/dc/dcmitype/StillImage" />
        <dc:title></dc:title>
      </cc:Work>
    </rdf:RDF>
  </metadata>
  <g
     inkscape:label="Vrstva 1"
     inkscape:groupmode="layer"
     id="layer1"
     transform="translate(0,-452.36218)"
     style="display:inline;opacity:1;">
    <path
       style="fill:url(#linearGradient5798);fill-opacity:1;fill-rule:evenodd;stroke:url(#linearGradient5816);stroke-width:1.55507386;stroke-linecap:butt;stroke-linejoin:miter;stroke-miterlimit:4;stroke-opacity:0.65098039;stroke-dasharray:none"
       d="m 20.989055,853.15069 c -11.2012079,0 -20.22246342,9.83926 -20.22246342,22.05059 l 0,154.34372 c 0,12.2113 9.02125552,22.0506 20.22246342,22.0506 11.201207,0 20.222462,-9.8393 20.222462,-22.0506 l 0,-154.34372 c 0,-12.21133 -9.021255,-22.05059 -20.222462,-22.05059 z m -9.092759,21.54021 10.394724,0 c 2.61412,2e-5 4.506127,0.21658 5.690849,0.6562 1.184685,0.43968 2.133469,1.22987 2.845424,2.35401 0.711913,1.12419 1.07095,2.40698 1.070972,3.85391 -2.2e-5,1.83652 -0.537952,3.35528 -1.616957,4.55177 -1.079046,1.19653 -2.693461,1.94863 -4.840371,2.26027 1.067885,0.62331 1.950662,1.30622 2.645929,2.05194 0.69523,0.74575 1.634762,2.0652 2.813926,3.96848 l 2.98192,4.78093 -5.900843,0 -3.580405,-5.32256 c -1.268148,-1.90328 -2.126237,-3.10861 -2.593431,-3.60392 -0.467219,-0.49529 -0.968144,-0.8371 -1.49096,-1.02076 -0.522838,-0.18364 -1.353797,-0.27081 -2.488434,-0.27082 l -0.997474,0 0,10.21806 -4.934869,0 0,-24.47751 z m 4.934869,4.14555 0,6.20792 3.653903,0 c 2.369395,1e-5 3.851796,-0.1017 4.441382,-0.30207 0.589555,-0.20033 1.052227,-0.54143 1.385964,-1.03118 0.333702,-0.48972 0.493469,-1.109 0.493486,-1.84362 -1.7e-5,-0.82363 -0.222102,-1.483 -0.661483,-1.98945 -0.439413,-0.50641 -1.057539,-0.82468 -1.85845,-0.95827 -0.400478,-0.0556 -1.5991,-0.0833 -3.601404,-0.0833 l -3.853398,0 z m -4.955869,38.59114 18.133019,0 0,4.14556 -13.198149,0 0,5.42671 12.284674,0 0,4.12472 -12.284674,0 0,6.65581 13.670636,0 0,4.12472 -18.605506,0 0,-24.47752 z m 7.045313,42.74712 5.218362,0 9.79624,24.47751 -5.375857,0 -2.131443,-5.56213 -9.785741,0 -2.015947,5.56213 -5.2393602,0 9.5337462,-24.47751 z m 2.551433,5.70794 -3.307413,9.08272 6.677823,0 -3.37041,-9.08272 z m -9.617745,37.02875 9.02976,0 c 2.035676,0 3.58346,0.1571 4.651377,0.4687 1.434976,0.423 2.672477,1.1702 3.695902,2.2499 1.023385,1.0796 1.796965,2.4047 2.330938,3.9684 0.533928,1.5639 0.797956,3.4985 0.797979,5.7913 -2.3e-5,2.0146 -0.244924,3.7499 -0.745481,5.208 -0.611841,1.7809 -1.490304,3.2207 -2.62493,4.3226 -0.856565,0.8348 -2.007683,1.4803 -3.464907,1.9478 -1.090166,0.3451 -2.543565,0.5208 -4.367885,0.5208 l -9.302753,0 0,-24.4775 z m 4.945369,4.1456 0,16.2072 3.685402,0 c 1.379361,0 2.370088,-0.073 2.981921,-0.2292 0.800912,-0.2003 1.466543,-0.5421 1.994947,-1.0207 0.528373,-0.4786 0.957729,-1.2681 1.291466,-2.3644 0.333701,-1.0964 0.503968,-2.5867 0.503986,-4.4789 -1.8e-5,-1.8922 -0.170285,-3.3514 -0.503986,-4.3643 -0.333737,-1.0128 -0.795785,-1.7968 -1.396464,-2.3644 -0.60071,-0.5677 -1.365662,-0.9558 -2.288938,-1.1562 -0.689701,-0.1558 -2.039463,-0.2291 -4.052893,-0.2291 l -2.215441,0 z"
       id="rect3000"
       inkscape:export-xdpi="90"
       inkscape:export-ydpi="90"
       inkscape:export-filename="C:\Users\Scotty\read_btn_down.png"
       inkscape:connector-curvature="0" />
    <path
       inkscape:connector-curvature="0"
       style="fill:#ffffff;fill-opacity:1;fill-rule:evenodd;stroke:none;display:inline"
       d="m 11.89638,874.6909 10.394724,0 c 2.614122,2e-5 4.506127,0.21658 5.690849,0.6562 1.184684,0.43967 2.133469,1.22987 2.845424,2.35401 0.711912,1.12419 1.070949,2.40698 1.070972,3.85391 -2.3e-5,1.83652 -0.537952,3.35527 -1.616957,4.55177 -1.079046,1.19653 -2.69346,1.94863 -4.840372,2.26027 1.067884,0.62331 1.950664,1.30622 2.64593,2.05194 0.695229,0.74575 1.634762,2.0652 2.813926,3.96848 l 2.981927,4.78093 -5.90085,0 -3.580405,-5.32256 c -1.268148,-1.90328 -2.126236,-3.10861 -2.593431,-3.60392 -0.467219,-0.49529 -0.968145,-0.8371 -1.490961,-1.02076 -0.522838,-0.18364 -1.353798,-0.27081 -2.488434,-0.27082 l -0.997472,0 0,10.21806 -4.93487,0 z m 4.93487,4.14555 0,6.20792 3.653902,0 c 2.369396,1e-5 3.851795,-0.10171 4.441382,-0.30207 0.589554,-0.20033 1.052227,-0.54143 1.385963,-1.03118 0.333703,-0.48972 0.49347,-1.109 0.493488,-1.84362 -1.8e-5,-0.82363 -0.222104,-1.483 -0.661483,-1.98945 -0.439413,-0.50641 -1.057539,-0.82468 -1.858451,-0.95827 -0.400477,-0.0556 -1.599099,-0.0833 -3.601404,-0.0833 z m -4.955869,38.59114 18.133018,0 0,4.14556 -13.19815,0 0,5.42671 12.284674,0 0,4.12472 -12.284674,0 0,6.65581 13.670638,0 0,4.12472 -18.605506,0 z m 7.045313,42.74712 5.218361,0 9.796246,24.47751 -5.375863,0 -2.131444,-5.56213 -9.78574,0 -2.015946,5.56213 -5.2393612,0 z m 2.551432,5.70794 -3.307412,9.08272 6.677823,0 z m -9.617744,37.02875 9.02976,0 c 2.035675,0 3.583458,0.1571 4.651376,0.4687 1.434978,0.423 2.672476,1.1702 3.695902,2.2499 1.023385,1.0796 1.796964,2.4047 2.330938,3.9684 0.533931,1.5639 0.797955,3.4985 0.797979,5.7913 -2.4e-5,2.0146 -0.244925,3.7499 -0.745481,5.208 -0.611839,1.7809 -1.490305,3.2207 -2.62493,4.3226 -0.856566,0.8348 -2.007684,1.4803 -3.464908,1.9478 -1.090166,0.3451 -2.543563,0.5208 -4.367883,0.5208 l -9.302753,0 z m 4.945368,4.1456 0,16.2072 3.685402,0 c 1.379362,0 2.370088,-0.073 2.981921,-0.2292 0.800911,-0.2003 1.466541,-0.5421 1.994946,-1.0207 0.528374,-0.4786 0.95773,-1.2681 1.291466,-2.3644 0.333703,-1.0964 0.503971,-2.5867 0.503987,-4.4789 -1.6e-5,-1.8922 -0.170284,-3.3514 -0.503987,-4.3643 -0.333736,-1.0128 -0.795784,-1.7968 -1.396462,-2.3644 -0.600712,-0.5677 -1.365663,-0.9558 -2.28894,-1.1562 -0.689698,-0.1558 -2.039462,-0.2291 -4.052892,-0.2291 z"
       id="rect3000-4"
       inkscape:export-xdpi="90"
       inkscape:export-ydpi="90"
       inkscape:export-filename="C:\Users\Scotty\read_btn_down.png"
       sodipodi:nodetypes="cscccsccccccccsccccccsccccccccccccccccccccccccccccccccccccccccccsccccsccccccccc" />
  </g>
</svg>
